<?xml version="1.0" standalone="no"?><!-- Generator: Gravit.io --><svg xmlns="http://www.w3.org/2000/svg" xmlns:xlink="http://www.w3.org/1999/xlink" style="isolation:isolate" viewBox="0 0 472 156" width="472" height="156"><defs><clipPath id="_clipPath_sxzGWCtjV0C3r731LpB3yegymgyThJkw"><rect width="472" height="156"/></clipPath></defs><g clip-path="url(#_clipPath_sxzGWCtjV0C3r731LpB3yegymgyThJkw)"><path d=" M 66.205 38.336 C 66.205 38.802 65.781 39.035 64.934 39.035 C 61.757 39.035 56.939 38.76 50.48 38.209 C 44.02 37.659 39.181 37.382 35.962 37.382 C 31.896 37.382 29.523 37.531 28.846 37.828 C 27.279 38.549 26.496 40.582 26.496 43.927 C 26.496 47.951 27.512 50.239 29.546 50.789 C 30.391 51.002 31.684 51.107 33.421 51.107 C 36.344 51.107 40.717 50.947 46.541 50.63 C 52.365 50.312 56.739 50.154 59.66 50.154 C 61.058 50.154 61.757 53.882 61.757 61.335 C 61.757 67.816 61.524 71.587 61.058 72.645 C 60.761 73.407 60.19 73.788 59.343 73.788 C 59.893 73.788 58.559 73.64 55.341 73.344 C 50.807 72.921 43.946 72.708 34.756 72.708 C 31.789 72.708 30.116 72.73 29.736 72.772 C 27.576 73.111 26.496 74.022 26.496 75.504 C 26.496 81.52 26.751 88.444 27.259 96.28 C 27.681 103.353 27.894 106.509 27.894 105.748 C 27.894 106.848 26.558 107.483 23.891 107.654 C 24.611 107.61 22.725 107.59 18.236 107.59 C 10.314 107.59 5.212 107.312 2.924 106.764 C 1.696 106.466 1.082 105.81 1.082 104.793 C 1.082 100.093 1.241 93.029 1.557 83.604 C 1.876 74.181 2.036 67.117 2.036 62.416 C 2.036 56.824 1.781 49.793 1.273 41.322 C 0.51 28.234 0.107 21.203 0.065 20.228 L 0.003 19.467 C -0.042 18.408 0.594 17.878 1.908 17.878 C 5.041 17.878 9.775 17.942 16.109 18.069 C 22.439 18.195 27.195 18.259 30.371 18.259 C 33.759 18.259 38.853 18.005 45.651 17.497 C 52.449 16.988 57.542 16.735 60.931 16.735 C 63.048 16.735 64.236 17.603 64.489 19.339 C 64.489 21.161 64.573 23.893 64.744 27.535 C 64.827 28.467 65.104 30.267 65.57 32.936 C 65.992 35.265 66.205 37.065 66.205 38.336 Z " fill="rgb(5,175,242)"/><path d=" M 116.651 75.377 C 116.651 71.777 115.517 68.801 113.253 66.451 C 110.985 64.099 108.031 62.924 104.389 62.924 C 100.745 62.924 97.801 64.09 95.558 66.418 C 93.312 68.748 92.191 71.735 92.191 75.377 C 92.191 78.808 93.376 81.752 95.747 84.209 C 98.119 86.665 101 87.893 104.389 87.893 C 107.989 87.893 110.932 86.718 113.22 84.366 C 115.508 82.015 116.651 79.019 116.651 75.377 Z  M 137.109 74.995 C 137.109 78.256 137.3 83.108 137.681 89.544 C 138.062 95.982 138.253 100.812 138.253 104.032 C 138.253 105.726 137.511 106.637 136.029 106.762 C 130.777 107.144 124.762 107.335 117.985 107.335 C 117.179 107.335 116.64 106.118 116.365 103.681 C 116.089 101.246 115.761 100.008 115.381 99.966 C 115.042 100.135 114.596 100.493 114.046 101.045 C 109.302 105.831 104.218 108.224 98.798 108.224 C 90.538 108.224 83.697 104.964 78.276 98.441 C 73.151 92.341 70.588 85.054 70.588 76.584 C 70.588 66.799 73.235 58.921 78.531 52.949 C 84.037 46.765 91.576 43.673 101.149 43.673 C 107.798 43.673 113.049 46.004 116.904 50.662 C 117.074 50.874 117.223 50.979 117.35 50.979 C 117.731 50.979 118.165 49.952 118.653 47.897 C 119.139 45.844 119.722 44.817 120.4 44.817 C 121.966 44.817 124.953 45.261 129.357 46.15 C 133.552 46.998 136.558 47.718 138.379 48.312 C 139.015 48.565 139.333 48.905 139.333 49.328 C 139.333 49.498 139.269 49.942 139.142 50.662 C 137.786 58.329 137.109 66.44 137.109 74.995 Z " fill="rgb(5,175,242)"/><path d=" M 251.281 104.412 C 251.281 105.894 250.645 106.72 249.376 106.89 C 248.104 107.058 244.969 107.144 239.971 107.144 C 234.804 107.144 231.585 107.017 230.315 106.762 C 229.044 106.509 228.408 105.472 228.408 103.651 C 228.408 101.701 228.472 98.789 228.599 94.912 C 228.727 91.037 228.79 88.128 228.79 86.179 C 228.79 78.766 228.705 73.493 228.536 70.357 C 228.281 65.318 225.888 62.796 221.356 62.796 C 219.365 62.796 217.386 63.635 215.416 65.306 C 213.445 66.98 212.355 68.832 212.144 70.865 C 211.973 72.645 211.889 77.854 211.889 86.496 C 211.889 88.485 211.953 91.506 212.08 95.547 C 212.207 99.593 212.271 102.634 212.271 104.666 C 212.271 106.065 211.656 106.762 210.428 106.762 L 191.177 106.762 C 189.99 106.762 189.398 105.894 189.398 104.159 C 189.398 102.168 189.462 99.183 189.589 95.199 C 189.715 91.217 189.779 88.212 189.779 86.179 C 189.779 84.61 189.737 82.238 189.653 79.062 C 189.568 75.885 189.526 73.493 189.526 71.882 C 189.526 65.826 187.216 62.796 182.6 62.796 C 180.736 62.796 178.725 63.517 176.565 64.957 C 174.192 66.525 173.006 68.178 173.006 69.913 C 173.006 73.768 173.027 79.528 173.07 87.194 C 173.112 94.862 173.134 100.601 173.134 104.412 C 173.134 105.472 173.006 106.129 172.752 106.382 C 172.497 106.637 171.842 106.804 170.782 106.89 C 168.877 107.058 165.868 107.144 161.76 107.144 C 159.092 107.144 156.063 107.017 152.676 106.762 C 151.659 106.68 151.055 106.528 150.865 106.318 C 150.674 106.108 150.578 105.472 150.578 104.412 C 150.578 101.025 150.599 95.952 150.643 89.195 C 150.683 82.439 150.706 77.368 150.706 73.979 C 150.706 67.033 150.197 59.218 149.181 50.534 C 149.096 50.026 149.054 49.644 149.054 49.391 C 149.054 48.672 149.351 48.184 149.944 47.93 C 150.874 47.549 152.631 47.231 155.217 46.976 C 158.393 46.681 160.277 46.49 160.87 46.405 C 161.294 46.321 162.967 45.876 165.89 45.07 C 167.965 44.479 169.639 44.181 170.91 44.181 C 171.714 44.181 172.137 45.654 172.18 48.597 C 172.222 51.541 172.392 53.013 172.689 53.013 C 173.112 52.844 173.598 52.547 174.15 52.123 C 177.962 49.158 180.968 47.125 183.172 46.024 C 186.432 44.457 189.97 43.673 193.783 43.673 C 197.678 43.673 201.152 44.542 204.201 46.279 C 207.632 48.228 209.856 50.96 210.873 54.473 C 213.116 51.424 216.21 48.862 220.149 46.787 C 224.088 44.712 227.921 43.673 231.648 43.673 C 237.239 43.673 241.793 44.965 245.309 47.549 C 249.289 50.471 251.281 54.644 251.281 60.064 C 251.281 62.31 251.218 65.688 251.09 70.199 C 250.963 74.709 250.899 78.088 250.899 80.333 C 250.899 83.001 250.963 87.014 251.09 92.371 C 251.218 97.731 251.281 101.744 251.281 104.412 Z " fill="rgb(5,175,242)"/><path d=" M 288.512 30.394 C 288.512 37.764 284.362 41.449 276.06 41.449 C 272.502 41.449 269.558 40.518 267.228 38.654 C 264.687 36.621 263.416 33.868 263.416 30.394 C 263.416 27.091 264.727 24.38 267.355 22.262 C 269.769 20.314 272.67 19.339 276.06 19.339 C 279.363 19.339 282.222 20.336 284.637 22.326 C 287.22 24.443 288.512 27.134 288.512 30.394 Z  M 286.86 77.6 C 286.86 80.694 286.923 85.299 287.05 91.419 C 287.178 97.541 287.241 102.126 287.241 105.175 C 287.241 106.064 286.712 106.593 285.654 106.763 C 284.212 107.017 280.972 107.144 275.933 107.144 C 270.85 107.144 267.588 107.017 266.147 106.763 C 265.215 106.593 264.643 106.319 264.434 105.937 C 264.347 105.766 264.305 105.133 264.305 104.031 C 264.305 101.108 264.369 96.714 264.497 90.847 C 264.623 84.982 264.687 80.566 264.687 77.6 C 264.687 65.573 264.22 55.999 263.289 48.883 C 263.204 48.206 263.162 47.761 263.162 47.549 C 263.162 46.702 263.733 46.278 264.878 46.278 C 266.063 46.278 267.874 46.405 270.311 46.659 C 272.743 46.913 274.576 47.041 275.804 47.041 C 277.031 47.041 278.875 46.935 281.332 46.722 C 283.789 46.511 285.631 46.405 286.86 46.405 C 287.877 46.405 288.385 46.829 288.385 47.676 C 288.385 47.845 288.341 48.247 288.259 48.883 C 287.325 57.142 286.86 66.716 286.86 77.6 Z " fill="rgb(5,175,242)"/><path d=" M 322.249 68.515 C 322.249 80.078 322.29 88.954 322.377 95.136 C 322.377 96.11 322.44 97.784 322.566 100.156 C 322.694 102.316 322.757 103.987 322.757 105.174 C 322.757 106.065 322.226 106.592 321.169 106.763 C 319.263 107.101 315.832 107.272 310.877 107.272 C 305.794 107.272 302.553 107.101 301.156 106.763 C 300.223 106.553 299.695 105.98 299.567 105.048 L 299.567 102.316 C 299.567 98.548 299.609 92.902 299.695 85.382 C 299.777 77.866 299.821 72.243 299.821 68.515 C 299.821 50.725 299.841 42.614 299.884 44.181 C 299.758 34.821 299.227 26.753 298.296 19.975 C 298.212 19.509 298.17 19.149 298.17 18.894 C 298.17 17.964 298.72 17.496 299.821 17.496 L 322.503 17.496 C 323.562 17.496 324.048 17.942 323.964 18.83 L 323.9 19.975 C 322.799 38.272 322.249 54.453 322.249 68.515 Z " fill="rgb(5,175,242)"/><path d=" M 359.036 30.394 C 359.036 37.764 354.884 41.449 346.583 41.449 C 343.024 41.449 340.081 40.518 337.752 38.654 C 335.209 36.621 333.94 33.868 333.94 30.394 C 333.94 27.091 335.251 24.38 337.879 22.262 C 340.293 20.314 343.194 19.339 346.583 19.339 C 349.886 19.339 352.744 20.336 355.161 22.326 C 357.744 24.443 359.036 27.134 359.036 30.394 Z  M 357.383 77.6 C 357.383 80.694 357.447 85.299 357.574 91.419 C 357.702 97.541 357.765 102.126 357.765 105.175 C 357.765 106.064 357.234 106.593 356.176 106.763 C 354.735 107.017 351.495 107.144 346.455 107.144 C 341.373 107.144 338.112 107.017 336.671 106.763 C 335.739 106.593 335.167 106.319 334.956 105.937 C 334.871 105.766 334.829 105.133 334.829 104.031 C 334.829 101.108 334.892 96.714 335.02 90.847 C 335.146 84.982 335.209 80.566 335.209 77.6 C 335.209 65.573 334.743 55.999 333.813 48.883 C 333.726 48.206 333.685 47.761 333.685 47.549 C 333.685 46.702 334.257 46.278 335.4 46.278 C 336.587 46.278 338.398 46.405 340.833 46.659 C 343.267 46.913 345.1 47.041 346.328 47.041 C 347.555 47.041 349.399 46.935 351.856 46.722 C 354.313 46.511 356.155 46.405 357.383 46.405 C 358.399 46.405 358.908 46.829 358.908 47.676 C 358.908 47.845 358.865 48.247 358.782 48.883 C 357.848 57.142 357.383 66.716 357.383 77.6 Z " fill="rgb(5,175,242)"/><path d=" M 405.606 68.388 C 405.606 65.763 404.674 63.454 402.812 61.463 C 400.947 59.473 398.723 58.476 396.14 58.476 C 393.471 58.476 391.268 59.6 389.533 61.843 C 387.921 63.92 387.118 66.355 387.118 69.149 C 387.118 70.294 387.71 70.866 388.896 70.866 C 392.03 70.866 396.901 70.379 403.509 69.404 C 404.907 69.194 405.606 68.854 405.606 68.388 Z  M 427.844 72.263 C 427.844 76.542 426.465 78.977 423.713 79.569 C 423.247 79.655 418.864 80.122 410.562 80.969 C 405.563 81.52 398.109 82.175 388.197 82.938 C 388.79 85.69 390.59 87.787 393.599 89.228 C 396.054 90.415 398.85 91.006 401.984 91.006 C 405.752 91.006 409.545 89.989 413.358 87.956 C 414.966 86.94 416.576 85.923 418.186 84.907 C 419.075 85.333 420.569 87.492 422.666 91.387 C 424.762 95.284 425.811 97.763 425.811 98.822 C 425.811 99.118 425.492 99.605 424.857 100.283 C 419.689 105.831 411.663 108.605 400.777 108.605 C 390.696 108.605 382.563 105.663 376.381 99.775 C 370.026 93.802 366.851 85.818 366.851 75.822 C 366.851 66.08 369.687 58.096 375.364 51.869 C 381.208 45.431 388.96 42.212 398.617 42.212 C 406.751 42.212 413.653 45.178 419.33 51.107 C 425.004 57.036 427.844 64.089 427.844 72.263 Z " fill="rgb(5,175,242)"/><path d=" M 472 55.363 C 472 55.787 471.682 56.359 471.047 57.079 C 469.86 56.783 468.674 56.634 467.489 56.634 C 464.99 56.634 462.892 57.185 461.198 58.286 C 459.165 59.557 458.148 61.357 458.148 63.687 C 458.148 65.17 459.229 67.054 461.389 69.341 C 464.65 72.772 466.664 75.08 467.425 76.267 C 469.585 79.486 470.666 82.938 470.666 86.623 C 470.666 88.784 470.241 91.07 469.394 93.485 C 468.419 96.153 467.191 98.102 465.709 99.329 C 462.575 102.041 458.912 104.329 454.719 106.191 C 450.187 108.139 446.014 109.114 442.202 109.114 C 441.354 109.114 439.459 106.814 436.516 102.22 C 433.571 97.624 432.1 94.819 432.1 93.802 C 432.1 93.421 432.333 93.188 432.799 93.103 C 435.763 92.552 438.749 92.003 441.758 91.452 C 445.484 90.265 447.349 88.318 447.349 85.606 C 447.349 83.744 446.268 81.583 444.108 79.125 C 440.253 74.849 438.242 72.581 438.072 72.327 C 435.912 69.276 434.832 66.058 434.832 62.671 C 434.832 56.317 438.052 50.915 444.488 46.469 C 450.249 42.53 456.412 40.56 462.978 40.56 C 463.655 40.56 465.328 42.837 467.997 47.39 C 470.666 51.945 472 54.601 472 55.363 Z " fill="rgb(5,175,242)"/><g id="Group"><path d=" M 1.035 128.466 L 9.063 128.466 L 9.063 155.436 L 1.035 155.436 L 1.035 128.466 Z  M 0 118.478 C 0 117.116 0.491 115.941 1.475 114.956 C 2.456 113.969 3.638 113.475 5.018 113.475 C 6.398 113.475 7.579 113.969 8.562 114.956 C 9.544 115.941 10.035 117.116 10.035 118.478 C 10.035 119.863 9.544 121.046 8.562 122.033 C 7.579 123.018 6.398 123.51 5.018 123.51 C 3.638 123.51 2.456 123.018 1.475 122.033 C 0.491 121.046 0 119.863 0 118.478 Z " fill="rgb(3,92,127)"/><path d=" M 23.75 128.466 L 23.75 131.665 C 26.489 129.093 29.364 127.808 32.375 127.808 C 34.946 127.808 37.073 128.865 38.757 130.975 C 40.439 133.087 41.281 135.784 41.281 139.066 L 41.281 155.436 L 33.128 155.436 L 33.128 140.353 C 33.128 138.803 32.704 137.497 31.857 136.431 C 31.01 135.364 29.98 134.834 28.769 134.834 C 27.304 134.834 26.102 135.506 25.162 136.854 C 24.221 138.202 23.75 139.944 23.75 142.077 L 23.75 155.436 L 15.722 155.436 L 15.722 128.466 L 23.75 128.466 Z " fill="rgb(3,92,127)"/><path d=" M 61.895 114.574 L 61.895 122.289 C 60.682 121.473 59.638 121.064 58.759 121.064 C 57.63 121.064 56.715 121.473 56.014 122.289 C 55.315 123.105 54.965 124.161 54.965 125.455 L 54.965 128.467 L 61.832 128.467 L 61.832 135.773 L 54.902 135.773 L 54.902 155.437 L 46.874 155.437 L 46.874 135.773 L 44.49 135.773 L 44.49 128.467 L 46.874 128.467 L 46.874 125.175 C 46.874 120.595 47.846 117.496 49.79 115.874 C 51.734 114.256 54.011 113.445 56.627 113.445 C 58.695 113.445 60.452 113.822 61.895 114.574 Z " fill="rgb(3,92,127)"/><path d=" M 83.418 142.014 C 83.418 140.195 82.822 138.607 81.631 137.247 C 80.439 135.89 79.047 135.209 77.46 135.209 C 75.807 135.209 74.386 135.847 73.195 137.121 C 72.003 138.398 71.407 139.924 71.407 141.701 C 71.407 143.645 71.998 145.298 73.179 146.655 C 74.361 148.015 75.786 148.694 77.46 148.694 C 79.047 148.694 80.439 148.029 81.631 146.703 C 82.822 145.375 83.418 143.812 83.418 142.014 Z  M 63.442 142.014 C 63.442 137.854 64.769 134.458 67.425 131.822 C 70.079 129.188 73.487 127.871 77.649 127.871 C 81.516 127.871 84.762 129.213 87.386 131.901 C 90.009 134.587 91.321 137.917 91.321 141.888 C 91.321 145.943 90.009 149.312 87.386 151.986 C 84.762 154.663 81.474 156 77.523 156 C 73.069 156 69.608 154.584 67.143 151.749 C 64.674 148.917 63.442 145.673 63.442 142.014 Z " fill="rgb(3,92,127)"/><path d=" M 103.656 128.466 L 103.656 132.449 L 103.782 132.449 C 104.575 131.111 105.501 130.049 106.558 129.266 C 107.611 128.481 108.589 128.089 109.489 128.089 C 110.033 128.089 110.523 128.132 110.962 128.215 L 110.962 136.996 C 110.292 136.87 109.634 136.807 108.987 136.807 C 107.334 136.807 106.055 137.387 105.144 138.548 C 104.236 139.707 103.782 141.333 103.782 143.426 L 103.782 155.436 L 95.628 155.436 L 95.628 128.466 L 103.656 128.466 Z " fill="rgb(3,92,127)"/><path d=" M 123.611 128.466 L 123.611 132.764 C 123.987 132.512 124.54 132.031 125.273 131.321 C 126.005 130.608 126.711 130.008 127.391 129.517 C 128.069 129.025 128.885 128.628 129.837 128.326 C 130.788 128.021 131.65 127.871 132.423 127.871 C 133.657 127.871 134.995 128.306 136.438 129.169 C 137.88 130.039 139.082 131.582 140.044 133.796 C 141.716 131.665 143.353 130.144 144.952 129.232 C 146.551 128.326 148.042 127.871 149.42 127.871 C 151.867 127.871 153.937 128.881 155.63 130.896 C 157.324 132.913 158.171 135.398 158.171 138.346 L 158.171 155.436 L 150.142 155.436 L 150.142 140.478 C 150.142 138.992 149.735 137.743 148.919 136.73 C 148.103 135.716 147.121 135.209 145.972 135.209 C 144.591 135.209 143.399 135.784 142.396 136.933 C 141.392 138.084 140.891 139.452 140.891 141.042 L 140.891 155.436 L 132.926 155.436 L 132.926 140.855 C 132.926 139.286 132.512 137.965 131.686 136.886 C 130.86 135.808 129.862 135.272 128.691 135.272 C 127.312 135.272 126.12 135.862 125.117 137.044 C 124.113 138.226 123.611 139.639 123.611 141.293 L 123.611 155.436 L 115.52 155.436 L 115.52 128.466 L 123.611 128.466 Z " fill="rgb(3,92,127)"/><path d=" M 175.773 135.963 C 174.185 135.963 172.857 136.595 171.79 137.859 C 170.724 139.122 170.192 140.719 170.192 142.64 C 170.192 144.44 170.699 145.887 171.711 146.983 C 172.726 148.081 174.059 148.632 175.711 148.632 C 177.299 148.632 178.659 147.999 179.787 146.733 C 180.917 145.467 181.482 143.937 181.482 142.139 C 181.482 140.467 180.917 139.018 179.787 137.796 C 178.659 136.571 177.32 135.963 175.773 135.963 Z  M 181.67 155.435 L 181.67 150.826 L 181.544 150.826 C 180.289 152.623 179.024 153.926 177.75 154.731 C 176.474 155.537 174.895 155.937 173.014 155.937 C 169.857 155.937 167.169 154.581 164.955 151.861 C 162.738 149.143 161.629 145.84 161.629 141.952 C 161.629 138.105 162.81 134.806 165.174 132.056 C 167.535 129.308 170.337 127.933 173.578 127.933 C 175.125 127.933 176.516 128.277 177.75 128.968 C 178.983 129.657 180.289 130.756 181.67 132.261 L 181.67 128.528 L 189.698 128.528 L 189.698 155.435 L 181.67 155.435 Z " fill="rgb(3,92,127)"/><path d=" M 196.701 119.216 L 204.729 119.216 L 204.729 128.466 L 208.587 128.466 L 208.587 135.836 L 204.729 135.836 L 204.729 155.436 L 196.701 155.436 L 196.701 135.836 L 193.629 135.836 L 193.629 128.466 L 196.701 128.466 L 196.701 119.216 Z " fill="rgb(3,92,127)"/><path d=" M 211.514 128.466 L 219.542 128.466 L 219.542 155.436 L 211.514 155.436 L 211.514 128.466 Z  M 210.479 118.478 C 210.479 117.116 210.969 115.941 211.952 114.956 C 212.935 113.969 214.117 113.475 215.497 113.475 C 216.875 113.475 218.056 113.969 219.04 114.956 C 220.022 115.941 220.514 117.116 220.514 118.478 C 220.514 119.863 220.022 121.046 219.04 122.033 C 218.056 123.018 216.875 123.51 215.497 123.51 C 214.117 123.51 212.935 123.018 211.952 122.033 C 210.969 121.046 210.479 119.863 210.479 118.478 Z " fill="rgb(3,92,127)"/><path d=" M 244.828 142.014 C 244.828 140.195 244.233 138.607 243.04 137.247 C 241.849 135.89 240.457 135.209 238.87 135.209 C 237.219 135.209 235.797 135.847 234.605 137.121 C 233.413 138.398 232.818 139.924 232.818 141.701 C 232.818 143.645 233.408 145.298 234.588 146.655 C 235.77 148.015 237.196 148.694 238.87 148.694 C 240.457 148.694 241.849 148.029 243.04 146.703 C 244.233 145.375 244.828 143.812 244.828 142.014 Z  M 224.851 142.014 C 224.851 137.854 226.179 134.458 228.835 131.822 C 231.489 129.188 234.897 127.871 239.058 127.871 C 242.925 127.871 246.172 129.213 248.797 131.901 C 251.419 134.587 252.731 137.917 252.731 141.888 C 252.731 145.943 251.419 149.312 248.797 151.986 C 246.172 154.663 242.884 156 238.933 156 C 234.479 156 231.018 154.584 228.553 151.749 C 226.084 148.917 224.851 145.673 224.851 142.014 Z " fill="rgb(3,92,127)"/><path d=" M 266.069 128.466 L 266.069 131.665 C 268.808 129.093 271.683 127.808 274.694 127.808 C 277.265 127.808 279.393 128.865 281.076 130.975 C 282.758 133.087 283.599 135.784 283.599 139.066 L 283.599 155.436 L 275.447 155.436 L 275.447 140.353 C 275.447 138.803 275.021 137.497 274.176 136.431 C 273.329 135.364 272.299 134.834 271.088 134.834 C 269.623 134.834 268.421 135.506 267.481 136.854 C 266.54 138.202 266.069 139.944 266.069 142.077 L 266.069 155.436 L 258.041 155.436 L 258.041 128.466 L 266.069 128.466 Z " fill="rgb(3,92,127)"/><path d=" M 323.95 132.262 L 318.493 135.585 C 316.916 133.995 315.448 133.202 314.082 133.202 C 313.409 133.202 312.834 133.391 312.35 133.764 C 311.867 134.141 311.624 134.599 311.624 135.141 C 311.624 136.018 311.904 136.655 312.463 137.05 C 313.021 137.447 314.506 138.06 316.915 138.89 C 319.326 139.718 321.226 140.781 322.618 142.077 C 324.007 143.374 324.701 145.172 324.701 147.471 C 324.701 149.791 323.656 151.783 321.567 153.444 C 319.474 155.107 316.966 155.937 314.04 155.937 C 312.053 155.937 310.073 155.382 308.097 154.277 C 306.122 153.168 304.444 151.474 303.064 149.195 L 309.554 146.248 C 311.017 148.778 312.535 150.042 314.103 150.042 C 314.812 150.042 315.451 149.813 316.015 149.355 C 316.58 148.895 316.862 148.376 316.862 147.792 C 316.862 147.041 316.537 146.472 315.891 146.085 C 315.241 145.696 314.761 145.502 314.448 145.502 C 314.322 145.355 313.568 145.061 312.19 144.623 C 306.796 142.862 304.097 140.007 304.097 136.056 C 304.097 133.671 305.066 131.722 306.999 130.207 C 308.934 128.692 311.457 127.934 314.572 127.934 C 318.022 127.934 321.147 129.377 323.95 132.262 Z " fill="rgb(3,92,127)"/><path d=" M 335.217 138.471 L 346.068 138.471 C 345.317 135.103 343.592 133.421 340.895 133.421 C 339.347 133.421 338.067 133.859 337.053 134.738 C 336.038 135.615 335.426 136.86 335.217 138.471 Z  M 354.38 143.865 L 335.155 143.865 C 335.259 145.598 335.829 147.011 336.865 148.097 C 337.898 149.187 339.107 149.728 340.486 149.728 C 342.953 149.728 344.886 148.609 346.288 146.373 L 353.658 148.819 C 350.918 153.606 346.666 155.999 340.895 155.999 C 336.65 155.999 333.273 154.714 330.765 152.145 C 328.256 149.573 327.001 146.113 327.001 141.763 C 327.001 137.853 328.325 134.572 330.969 131.915 C 333.614 129.261 336.869 127.933 340.737 127.933 C 344.625 127.933 347.872 129.329 350.475 132.118 C 353.076 134.91 354.38 138.398 354.38 142.577 L 354.38 143.865 Z " fill="rgb(3,92,127)"/><path d=" M 365.428 128.466 L 365.428 132.449 L 365.554 132.449 C 366.347 131.111 367.273 130.049 368.33 129.266 C 369.385 128.481 370.361 128.089 371.261 128.089 C 371.805 128.089 372.297 128.132 372.736 128.215 L 372.736 136.996 C 372.066 136.87 371.408 136.807 370.759 136.807 C 369.108 136.807 367.828 137.387 366.916 138.548 C 366.01 139.707 365.554 141.333 365.554 143.426 L 365.554 155.436 L 357.4 155.436 L 357.4 128.466 L 365.428 128.466 Z " fill="rgb(3,92,127)"/><path d=" M 374.219 128.466 L 382.699 128.466 L 390.104 144.271 L 397.495 128.466 L 405.893 128.466 L 393.337 155.436 L 386.785 155.436 L 374.219 128.466 Z " fill="rgb(3,92,127)"/><path d=" M 409.133 128.466 L 417.162 128.466 L 417.162 155.436 L 409.133 155.436 L 409.133 128.466 Z  M 408.099 118.478 C 408.099 117.116 408.59 115.941 409.573 114.956 C 410.554 113.969 411.736 113.475 413.116 113.475 C 414.496 113.475 415.677 113.969 416.66 114.956 C 417.642 115.941 418.133 117.116 418.133 118.478 C 418.133 119.863 417.642 121.046 416.66 122.033 C 415.677 123.018 414.496 123.51 413.116 123.51 C 411.736 123.51 410.554 123.018 409.573 122.033 C 408.59 121.046 408.099 119.863 408.099 118.478 Z " fill="rgb(3,92,127)"/><path d=" M 442.762 146.09 L 442.762 154.119 C 440.002 155.373 437.713 156 435.893 156 C 431.838 156 428.451 154.663 425.734 151.986 C 423.014 149.312 421.657 145.965 421.657 141.951 C 421.657 137.917 422.915 134.572 425.434 131.914 C 427.955 129.261 431.147 127.934 435.016 127.934 C 437.713 127.934 440.326 128.562 442.856 129.815 L 442.856 137.404 C 440.513 136.276 438.372 135.71 436.428 135.71 C 434.628 135.71 433.182 136.257 432.084 137.358 C 430.986 138.453 430.437 139.904 430.437 141.701 C 430.437 143.479 430.979 144.914 432.068 146.012 C 433.154 147.109 434.587 147.659 436.365 147.659 C 437.974 147.659 440.107 147.136 442.762 146.09 Z " fill="rgb(3,92,127)"/><path d=" M 452.839 138.471 L 463.69 138.471 C 462.937 135.103 461.212 133.421 458.515 133.421 C 456.967 133.421 455.688 133.859 454.674 134.738 C 453.659 135.615 453.046 136.86 452.839 138.471 Z  M 472 143.865 L 452.776 143.865 C 452.88 145.598 453.45 147.011 454.485 148.097 C 455.52 149.187 456.727 149.728 458.107 149.728 C 460.573 149.728 462.508 148.609 463.909 146.373 L 471.279 148.819 C 468.54 153.606 464.286 155.999 458.515 155.999 C 454.27 155.999 450.895 154.714 448.386 152.145 C 445.877 149.573 444.622 146.113 444.622 141.763 C 444.622 137.853 445.945 134.572 448.59 131.915 C 451.234 129.261 454.489 127.933 458.359 127.933 C 462.247 127.933 465.492 129.329 468.096 132.118 C 470.698 134.91 472 138.398 472 142.577 L 472 143.865 Z " fill="rgb(3,92,127)"/></g><g id="Group"><path d=" M 75.749 5.165 L 75.749 12.064 L 76.984 12.064 C 79.967 12.064 81.459 10.847 81.459 8.414 C 81.459 7.418 81.07 6.628 80.294 6.043 C 79.519 5.458 78.442 5.165 77.066 5.165 L 75.749 5.165 Z  M 70 0.444 L 78.726 0.444 C 81.378 0.444 83.476 1.143 85.017 2.541 C 86.56 3.939 87.331 5.828 87.331 8.208 C 87.331 9.565 86.977 10.978 86.269 12.443 C 85.562 13.908 84.259 15.057 82.358 15.891 L 89.772 26.935 L 83.211 26.935 L 76.354 16.685 L 75.709 16.685 L 75.709 26.935 L 70 26.935 L 70 0.444 Z " fill="rgb(3,92,127)"/><path d=" M 104.642 18.299 C 104.642 17.129 104.259 16.107 103.492 15.232 C 102.725 14.358 101.831 13.921 100.808 13.921 C 99.745 13.921 98.831 14.331 98.065 15.152 C 97.298 15.972 96.914 16.954 96.914 18.097 C 96.914 19.349 97.294 20.411 98.055 21.286 C 98.813 22.16 99.732 22.598 100.808 22.598 C 101.831 22.598 102.725 22.17 103.492 21.316 C 104.259 20.461 104.642 19.456 104.642 18.299 Z  M 91.789 18.299 C 91.789 15.622 92.644 13.437 94.352 11.743 C 96.061 10.048 98.253 9.201 100.93 9.201 C 103.417 9.201 105.506 10.064 107.194 11.793 C 108.881 13.52 109.726 15.664 109.726 18.219 C 109.726 20.828 108.881 22.993 107.194 24.715 C 105.506 26.437 103.39 27.297 100.848 27.297 C 97.983 27.297 95.758 26.387 94.171 24.565 C 92.584 22.742 91.789 20.653 91.789 18.299 Z " fill="rgb(3,92,127)"/><path d=" M 114.185 3.631 L 119.351 3.631 L 119.351 9.583 L 121.831 9.583 L 121.831 14.324 L 119.351 14.324 L 119.351 26.934 L 114.185 26.934 L 114.185 14.324 L 112.208 14.324 L 112.208 9.583 L 114.185 9.583 L 114.185 3.631 Z " fill="rgb(3,92,127)"/><path d=" M 125.323 0 L 130.569 0 L 130.569 11.601 C 131.509 10.793 132.384 10.21 133.191 9.846 C 133.998 9.483 134.933 9.301 135.995 9.301 C 137.811 9.301 139.234 9.956 140.262 11.268 C 141.292 12.58 141.807 14.399 141.807 16.726 L 141.807 26.935 L 136.601 26.935 L 136.601 17.634 C 136.601 16.518 136.315 15.579 135.743 14.819 C 135.171 14.059 134.469 13.679 133.634 13.679 C 132.572 13.679 131.795 14.117 131.304 14.991 C 130.812 15.865 130.569 17.231 130.569 19.086 L 130.569 26.935 L 125.323 26.935 L 125.323 0 Z " fill="rgb(3,92,127)"/><path d=" M 150.683 16.02 L 157.664 16.02 C 157.18 13.853 156.07 12.771 154.335 12.771 C 153.34 12.771 152.516 13.053 151.863 13.618 C 151.211 14.183 150.818 14.983 150.683 16.02 Z  M 163.011 19.49 L 150.643 19.49 C 150.711 20.606 151.078 21.514 151.742 22.214 C 152.41 22.913 153.185 23.263 154.073 23.263 C 155.66 23.263 156.905 22.543 157.805 21.104 L 162.546 22.678 C 160.784 25.758 158.047 27.298 154.335 27.298 C 151.605 27.298 149.432 26.47 147.819 24.816 C 146.204 23.161 145.397 20.936 145.397 18.139 C 145.397 15.623 146.247 13.511 147.949 11.803 C 149.651 10.094 151.746 9.24 154.235 9.24 C 156.737 9.24 158.826 10.139 160.499 11.934 C 162.175 13.73 163.011 15.973 163.011 18.662 L 163.011 19.49 Z " fill="rgb(3,92,127)"/><path d=" M 171.566 9.583 L 171.566 12.145 L 171.646 12.145 C 172.158 11.285 172.752 10.603 173.432 10.098 C 174.111 9.593 174.741 9.341 175.318 9.341 C 175.668 9.341 175.985 9.368 176.267 9.423 L 176.267 15.072 C 175.837 14.99 175.413 14.95 174.996 14.95 C 173.933 14.95 173.109 15.324 172.525 16.07 C 171.939 16.817 171.646 17.862 171.646 19.207 L 171.646 26.935 L 166.4 26.935 L 166.4 9.583 L 171.566 9.583 Z " fill="rgb(3,92,127)"/><path d=" M 179.98 0 L 185.226 0 L 185.226 11.601 C 186.166 10.793 187.041 10.21 187.848 9.846 C 188.655 9.483 189.59 9.301 190.653 9.301 C 192.468 9.301 193.892 9.956 194.92 11.268 C 195.949 12.58 196.464 14.399 196.464 16.726 L 196.464 26.935 L 191.258 26.935 L 191.258 17.634 C 191.258 16.518 190.972 15.579 190.4 14.819 C 189.828 14.059 189.126 13.679 188.291 13.679 C 187.229 13.679 186.452 14.117 185.961 14.991 C 185.47 15.865 185.226 17.231 185.226 19.086 L 185.226 26.935 L 179.98 26.935 L 179.98 0 Z " fill="rgb(3,92,127)"/><path d=" M 209.235 14.405 C 208.212 14.405 207.358 14.813 206.672 15.627 C 205.986 16.44 205.643 17.465 205.643 18.704 C 205.643 19.859 205.969 20.791 206.622 21.497 C 207.273 22.204 208.132 22.556 209.194 22.556 C 210.217 22.556 211.091 22.149 211.817 21.336 C 212.544 20.522 212.908 19.537 212.908 18.38 C 212.908 17.304 212.544 16.373 211.817 15.585 C 211.091 14.798 210.23 14.405 209.235 14.405 Z  M 213.028 26.935 L 213.028 23.969 L 212.947 23.969 C 212.139 25.126 211.326 25.963 210.506 26.481 C 209.685 27 208.67 27.258 207.46 27.258 C 205.428 27.258 203.7 26.383 202.274 24.635 C 200.849 22.886 200.136 20.761 200.136 18.259 C 200.136 15.785 200.896 13.663 202.416 11.893 C 203.935 10.126 205.738 9.24 207.822 9.24 C 208.817 9.24 209.712 9.462 210.506 9.906 C 211.299 10.349 212.139 11.056 213.028 12.024 L 213.028 9.624 L 218.193 9.624 L 218.193 26.935 L 213.028 26.935 Z " fill="rgb(3,92,127)"/><path d=" M 228.765 9.583 L 228.765 12.348 C 229.008 12.186 229.363 11.877 229.835 11.42 C 230.305 10.963 230.758 10.575 231.195 10.26 C 231.633 9.943 232.158 9.688 232.77 9.493 C 233.382 9.298 233.937 9.2 234.434 9.2 C 235.229 9.2 236.089 9.479 237.017 10.038 C 237.946 10.595 238.718 11.588 239.338 13.014 C 240.415 11.642 241.467 10.663 242.495 10.078 C 243.524 9.493 244.482 9.2 245.37 9.2 C 246.944 9.2 248.274 9.85 249.364 11.147 C 250.455 12.445 251 14.042 251 15.939 L 251 26.935 L 245.834 26.935 L 245.834 17.311 C 245.834 16.356 245.572 15.552 245.047 14.9 C 244.522 14.247 243.891 13.92 243.15 13.92 C 242.263 13.92 241.496 14.292 240.85 15.032 C 240.205 15.77 239.883 16.652 239.883 17.674 L 239.883 26.935 L 234.757 26.935 L 234.757 17.554 C 234.757 16.544 234.492 15.694 233.961 15 C 233.428 14.307 232.787 13.962 232.034 13.962 C 231.147 13.962 230.38 14.342 229.733 15.102 C 229.088 15.862 228.765 16.774 228.765 17.836 L 228.765 26.935 L 223.559 26.935 L 223.559 9.583 L 228.765 9.583 Z " fill="rgb(3,92,127)"/></g></g></svg>